<svg width="1280" height="720" viewBox="0 0 1280 720" fill="none" xmlns="http://www.w3.org/2000/svg">
<g opacity="0.3">
<g clip-path="url(#clip0_31_53)">
<path d="M256 104C326.692 104 384 46.6925 384 -24C384 -94.6924 326.692 -152 256 -152C185.308 -152 128 -94.6924 128 -24C128 46.6925 185.308 104 256 104Z" fill="url(#paint0_radial_31_53)"/>
<path d="M1024 296C1130.04 296 1216 210.039 1216 104C1216 -2.03864 1130.04 -88 1024 -88C917.961 -88 832 -2.03864 832 104C832 210.039 917.961 296 1024 296Z" fill="url(#paint1_radial_31_53)"/>
<path d="M384 769.6C468.831 769.6 537.6 700.831 537.6 616C537.6 531.169 468.831 462.4 384 462.4C299.169 462.4 230.4 531.169 230.4 616C230.4 700.831 299.169 769.6 384 769.6Z" fill="url(#paint2_radial_31_53)"/>
</g>
</g>
<defs>
<radialGradient id="paint0_radial_31_53" cx="0" cy="0" r="1" gradientUnits="userSpaceOnUse" gradientTransform="translate(12928 12648) scale(128)">
<stop stop-color="white" stop-opacity="0.1"/>
<stop offset="1" stop-color="white" stop-opacity="0"/>
</radialGradient>
<radialGradient id="paint1_radial_31_53" cx="0" cy="0" r="1" gradientUnits="userSpaceOnUse" gradientTransform="translate(20032 19112) scale(192)">
<stop stop-color="white" stop-opacity="0.1"/>
<stop offset="1" stop-color="white" stop-opacity="0"/>
</radialGradient>
<radialGradient id="paint2_radial_31_53" cx="0" cy="0" r="1" gradientUnits="userSpaceOnUse" gradientTransform="translate(15590.4 15822.4) scale(153.6)">
<stop stop-color="white" stop-opacity="0.1"/>
<stop offset="1" stop-color="white" stop-opacity="0"/>
</radialGradient>
<clipPath id="clip0_31_53">
<rect width="1280" height="720" fill="white"/>
</clipPath>
</defs>
</svg>
